<?xml version="1.0" encoding="UTF-8" standalone="no"?>
<!-- Created with Inkscape (http://www.inkscape.org/) -->

<svg
   width="48"
   height="48"
   viewBox="0 0 12.7 12.7"
   version="1.1"
   id="svg809"
   inkscape:version="1.2.2 (b0a8486541, 2022-12-01)"
   sodipodi:docname="favicon.svg"
   xmlns:inkscape="http://www.inkscape.org/namespaces/inkscape"
   xmlns:sodipodi="http://sodipodi.sourceforge.net/DTD/sodipodi-0.dtd"
   xmlns="http://www.w3.org/2000/svg"
   xmlns:svg="http://www.w3.org/2000/svg">
  <sodipodi:namedview
     id="namedview811"
     pagecolor="#505050"
     bordercolor="#ffffff"
     borderopacity="1"
     inkscape:showpageshadow="0"
     inkscape:pageopacity="0"
     inkscape:pagecheckerboard="1"
     inkscape:deskcolor="#505050"
     inkscape:document-units="px"
     showgrid="false"
     inkscape:zoom="5.6568543"
     inkscape:cx="44.90128"
     inkscape:cy="15.114407"
     inkscape:window-width="1366"
     inkscape:window-height="698"
     inkscape:window-x="0"
     inkscape:window-y="0"
     inkscape:window-maximized="1"
     inkscape:current-layer="layer1" />
  <defs
     id="defs806">
	

		
	
			
			
			
			
			
			
			
		</defs>
  <g
     inkscape:label="Layer 1"
     inkscape:groupmode="layer"
     id="layer1">
    <g
       id="g4971"
       transform="matrix(1.590361,0,0,1.590361,-25.296546,3.4574577)">
      <g
         style="fill:#000000;fill-opacity:1;stroke-width:2.83716;stroke-dasharray:none"
         id="g4023-3-7"
         transform="matrix(0.04332007,0,0,0.04332007,15.906097,-2.1740215)">
        <g
           id="g4006-6-9"
           style="fill:#000000;fill-opacity:1;stroke-width:2.83716;stroke-dasharray:none">
	<g
   id="g4004-1-2"
   style="fill:#000000;fill-opacity:1;stroke-width:2.83716;stroke-dasharray:none">
		<g
   id="g4002-2-0"
   style="fill:#000000;fill-opacity:1;stroke-width:2.83716;stroke-dasharray:none">
			<path
   d="m 168.286,1.861 c -0.572,-0.999 -1.577,-1.674 -2.717,-1.826 -1.153,-0.159 -2.289,0.235 -3.102,1.05 L 1.084,162.471 c -0.814,0.814 -1.202,1.959 -1.05,3.102 0.151,1.14 0.826,2.145 1.826,2.717 18.844,10.796 39.686,16.05 60.405,16.05 31.609,0 62.926,-12.234 86.381,-35.692 38.832,-38.831 46.908,-99.193 19.64,-146.787 z M 149.898,24.11 c 14.87,35.753 6.807,77.333 -20.825,104.966 -27.634,27.632 -69.215,35.692 -104.968,20.827 z m -6.477,119.313 c -35.327,35.329 -89.623,43.563 -133.62,20.78 l 8.714,-8.714 c 13.609,6.13 28.064,9.153 42.432,9.153 26.92,0 53.484,-10.473 73.35,-30.34 30.465,-30.465 38.77,-76.657 21.163,-115.759 l 8.739,-8.738 c 22.781,43.996 14.549,98.289 -20.778,133.618 z"
   id="path3988-9-2"
   style="fill:#000000;fill-opacity:1;stroke-width:2.83716;stroke-dasharray:none" />

			<path
   d="m 66.1,132.502 c 2.04,0 3.695,-1.655 3.695,-3.695 v -5.227 c 0,-2.04 -1.655,-3.695 -3.695,-3.695 -2.04,0 -3.695,1.655 -3.695,3.695 v 5.227 c 0,2.041 1.655,3.695 3.695,3.695 z"
   id="path3990-3-3"
   style="fill:#000000;fill-opacity:1;stroke-width:2.83716;stroke-dasharray:none" />

			<path
   d="m 87.001,128.808 c 0.722,0.722 1.667,1.083 2.612,1.083 0.945,0 1.891,-0.361 2.612,-1.083 1.443,-1.441 1.443,-3.781 0,-5.225 L 87,118.356 c -1.443,-1.443 -3.781,-1.443 -5.225,0 -1.443,1.441 -1.443,3.781 0,5.225 z"
   id="path3992-1-7"
   style="fill:#000000;fill-opacity:1;stroke-width:2.83716;stroke-dasharray:none" />

			<path
   d="m 107.902,95.925 c 2.04,0 3.695,-1.655 3.695,-3.695 v -5.225 c 0,-2.04 -1.655,-3.695 -3.695,-3.695 -2.04,0 -3.695,1.655 -3.695,3.695 v 5.225 c 0.001,2.04 1.655,3.695 3.695,3.695 z"
   id="path3994-9-5"
   style="fill:#000000;fill-opacity:1;stroke-width:2.83716;stroke-dasharray:none" />

			<path
   d="m 123.579,81.776 c 0.722,0.722 1.667,1.083 2.612,1.083 0.945,0 1.891,-0.361 2.612,-1.083 1.443,-1.443 1.443,-3.781 0,-5.225 l -2.612,-2.612 c -1.443,-1.443 -3.781,-1.443 -5.225,0 -1.444,1.443 -1.443,3.781 0,5.225 z"
   id="path3996-4-9"
   style="fill:#000000;fill-opacity:1;stroke-width:2.83716;stroke-dasharray:none" />

			<path
   d="m 121.926,104.601 -10.451,5.227 c -1.826,0.913 -2.565,3.132 -1.653,4.958 0.648,1.295 1.952,2.042 3.309,2.042 0.554,0 1.118,-0.125 1.649,-0.39 l 10.451,-5.227 c 1.826,-0.913 2.565,-3.132 1.653,-4.958 -0.911,-1.823 -3.125,-2.569 -4.958,-1.652 z"
   id="path3998-7-2"
   style="fill:#000000;fill-opacity:1;stroke-width:2.83716;stroke-dasharray:none" />

			<path
   d="m 136.643,61.958 c 2.041,0 3.695,-1.655 3.695,-3.695 v -5.225 c 0,-2.04 -1.654,-3.695 -3.695,-3.695 -2.04,0 -3.695,1.655 -3.695,3.695 v 5.225 c 0,2.04 1.654,3.695 3.695,3.695 z"
   id="path4000-8-2"
   style="fill:#000000;fill-opacity:1;stroke-width:2.83716;stroke-dasharray:none" />

		</g>

	</g>

</g>
      </g>
      <path
         style="fill:#ffdeb3;fill-opacity:1;stroke:none;stroke-width:0.125505;stroke-opacity:1"
         d="M 84.580054,-4.2429136 C 77.76011,2.5704483 70.946297,9.3905549 64.128812,16.206611 c 0.04647,0.424933 0.799266,0.438684 1.161415,0.630223 2.495046,0.861277 5.191218,0.814114 7.773715,0.453295 5.44692,-1.0224 10.242553,-5.097297 11.982099,-10.3846394 0.954579,-2.6414703 1.052408,-5.5499794 0.553692,-8.2956886 -0.240361,-0.9703871 -0.484319,-1.9761866 -0.908882,-2.8691382 z m -2.009557,4.17623889 c 0.713768,0.22061327 0.598135,1.35811501 0.223311,1.82718121 -0.47648,0.3689154 -0.875287,-0.2115927 -0.830002,-0.6696887 -0.04358,-0.48702809 -0.06578,-1.18222133 0.606691,-1.15749251 z M 80.355524,3.7796224 C 80.805419,3.936082 81.555686,4.5285127 81.21298,5.0609045 80.70352,5.6326026 79.8113,4.7724208 79.845168,4.1860441 79.912458,3.9764965 80.130496,3.7800945 80.355524,3.7796224 Z m -2.464022,1.7504563 c 0.636814,0.1370971 0.39598,1.0627132 0.353473,1.5158691 -0.117093,0.5675155 -1.068329,0.3918423 -0.969724,-0.2010047 -0.03642,-0.4727403 -0.138571,-1.438485 0.616251,-1.3148644 z m 2.681695,3.407274 c 0.407211,0.1746381 0.347006,0.9772623 -0.130652,1.0810123 -0.674373,0.274056 -1.416739,0.926986 -2.182371,0.69028 -0.505464,-0.536 0.389819,-1.0131234 0.790781,-1.2070091 0.475531,-0.2174581 0.975318,-0.5529263 1.522242,-0.5642832 z M 73.90352,11.059667 c 0.614106,0.244406 1.257477,0.783725 1.414877,1.453117 -0.03966,0.634676 -0.877067,0.427831 -1.131019,0.05221 -0.352604,-0.334148 -1.106014,-0.966892 -0.530456,-1.427132 0.06948,-0.0543 0.157627,-0.08763 0.246598,-0.0782 z m -2.840048,0.457654 c 0.61347,0.07558 0.360546,0.947412 0.395391,1.369037 0.02442,0.620415 -0.972443,0.737365 -0.991296,0.05932 -0.07719,-0.480789 -0.236495,-1.578891 0.595905,-1.428357 z"
         id="path4951"
         transform="scale(0.26458333)" />
      <path
         style="fill:#ffdeb3;fill-opacity:1;stroke:none;stroke-width:0.125505;stroke-opacity:1"
         d="m 86.927395,-6.4417082 c -0.557049,0.256116 -0.99988,0.8331218 -1.346976,1.2977055 0.7957,2.1221001 1.443771,4.34597529 1.329309,6.6321715 0.10885,2.3106115 -0.267551,4.6256728 -1.206621,6.7457177 C 83.26815,14.332806 76.952391,18.68432 70.372457,18.614254 67.901531,18.725077 65.468451,18.16094 63.194876,17.23296 c -0.544794,0.355534 -1.048162,0.934102 -1.457774,1.444782 2.162345,1.211077 4.677705,1.854546 7.15522,2.09202 5.183953,0.361207 10.524262,-1.428478 14.254716,-5.08944 3.715749,-3.409465 6.011379,-8.384805 5.931842,-13.451867 0.147074,-2.93641778 -0.586037,-5.8807293 -1.857577,-8.5115657 -0.06704,-0.093692 -0.17303,-0.1715354 -0.293908,-0.1585975 z"
         id="path4953"
         transform="scale(0.26458333)" />
      <path
         style="fill:#ffdeb3;fill-opacity:1;stroke:none;stroke-width:0.00390625;stroke-opacity:1"
         d="m 86.958305,-6.7232285 c -0.05364,0.02247 -0.08722,0.073452 -0.12989,0.1107645 -0.06283,0.064588 -0.129995,0.1254484 -0.188248,0.1942206 -0.04063,0.058249 -0.02015,0.1486811 0.04465,0.1798084 0.0483,0.028902 0.107956,0.012866 0.151672,-0.017173 0.03954,-0.022928 0.08037,-0.044002 0.121429,-0.063759 0.05492,-4.708e-4 0.09634,0.048053 0.151843,0.04237 0.07149,1.785e-4 0.13194,-0.072105 0.118532,-0.1425893 -0.0092,-0.051693 -0.04267,-0.095402 -0.06364,-0.1428841 -0.0284,-0.047465 -0.0446,-0.1050288 -0.08812,-0.1414456 -0.03351,-0.025957 -0.07817,-0.032227 -0.118222,-0.019313 z"
         id="path4955"
         transform="scale(0.26458333)" />
    </g>
  </g>
</svg>
